# xmcd
#
# Track frame offsets: 
#        150
#        23215
#        52036
#        79283
#        104908
#        129230
#        148819
#        165916
#        191496
#        217047
#        246294
#
# Disc length: 3589 seconds
#
# Revision: 0
# Processed by: cddbd v1.5.2PL0 Copyright (c) Steve Scherf et al.
# Submitted via: ExactAudioCopy v1.0b3
#
DISCID=a10e030b
DTITLE=Various Artist - Tinh khuc Tran Thien Thanh #4
DYEAR=2001
DGENRE=
TTITLE0=Thanh Tuyen, Kim Long - Anh khong chet dau anh
TTITLE1=Thanh Tuyen - Tu nua vong trai dat
TTITLE2=Huong Lan, Anh Chuong - Nguoi chet tro ve
TTITLE3=Thai Chau, Yen Khoa - Dam cuoi dau Xuan
TTITLE4=Nhat Truong - Tinh dau ngan noi
TTITLE5=Thanh Lan - Hai sac hoa ti gon
TTITLE6=Philip Huy - Cho anh xin so nha
TTITLE7=Y Lan, Tuan Cuong - Tra hoa nu
TTITLE8=Giao Linh - Dan ao mua Xuan
TTITLE9=Dinh Van, Yen Khoa - Mua dong cua anh
TTITLE10=Che Linh - Mua Xuan la kho
EXTD=
EXTT0=
EXTT1=
EXTT2=
EXTT3=
EXTT4=
EXTT5=
EXTT6=
EXTT7=
EXTT8=
EXTT9=
EXTT10=
PLAYORDER=
